<?xml version="1.0" encoding="UTF-8" standalone="no"?>
<!DOCTYPE svg PUBLIC "-//W3C//DTD SVG 1.1//EN" "http://www.w3.org/Graphics/SVG/1.1/DTD/svg11.dtd">
<!-- Generated by graphviz version 2.26.3 (20100126.1600)
 -->
<!-- Title: G Pages: 1 -->
<svg xmlns="http://www.w3.org/2000/svg" xmlns:xlink="http://www.w3.org/1999/xlink" width="1036pt" height="900pt">
<g id="viewport" class="graph" transform="scale(1 1) rotate(0) translate(4 896)">
<title>G</title>
<polygon fill="white" stroke="white" points="-4,5 -4,-896 1033,-896 1033,5 -4,5"/>
<g id="graph2" class="cluster"><title>cluster_Bazinga</title>
<polyline fill="none" stroke="gray" points="231,-260 1008,-260 "/>
<path fill="none" stroke="gray" d="M1008,-260C1014,-260 1020,-266 1020,-272"/>
<polyline fill="none" stroke="gray" points="1020,-272 1020,-872 "/>
<path fill="none" stroke="gray" d="M1020,-872C1020,-878 1014,-884 1008,-884"/>
<polyline fill="none" stroke="gray" points="1008,-884 231,-884 "/>
<path fill="none" stroke="gray" d="M231,-884C225,-884 219,-878 219,-872"/>
<polyline fill="none" stroke="gray" points="219,-872 219,-272 "/>
<path fill="none" stroke="gray" d="M219,-272C219,-266 225,-260 231,-260"/>
<text text-anchor="middle" x="619.5" y="-870.1" font-family="Times Roman,serif" font-size="11.00" fill="gray">Bazinga</text>
</g>
<g id="graph3" class="cluster"><title>cluster_Bazinga_ExposeRoutingBundle</title>
<polyline fill="none" stroke="gray" points="239,-268 1000,-268 "/>
<path fill="none" stroke="gray" d="M1000,-268C1006,-268 1012,-274 1012,-280"/>
<polyline fill="none" stroke="gray" points="1012,-280 1012,-842 "/>
<path fill="none" stroke="gray" d="M1012,-842C1012,-848 1006,-854 1000,-854"/>
<polyline fill="none" stroke="gray" points="1000,-854 239,-854 "/>
<path fill="none" stroke="gray" d="M239,-854C233,-854 227,-848 227,-842"/>
<polyline fill="none" stroke="gray" points="227,-842 227,-280 "/>
<path fill="none" stroke="gray" d="M227,-280C227,-274 233,-268 239,-268"/>
<text text-anchor="middle" x="619.5" y="-840.1" font-family="Times Roman,serif" font-size="11.00" fill="gray">ExposeRoutingBundle</text>
</g>
<g id="graph4" class="cluster"><title>cluster_Bazinga_ExposeRoutingBundle_Command</title>
<polyline fill="none" stroke="gray" points="801,-750 979,-750 "/>
<path fill="none" stroke="gray" d="M979,-750C985,-750 991,-756 991,-762"/>
<polyline fill="none" stroke="gray" points="991,-762 991,-812 "/>
<path fill="none" stroke="gray" d="M991,-812C991,-818 985,-824 979,-824"/>
<polyline fill="none" stroke="gray" points="979,-824 801,-824 "/>
<path fill="none" stroke="gray" d="M801,-824C795,-824 789,-818 789,-812"/>
<polyline fill="none" stroke="gray" points="789,-812 789,-762 "/>
<path fill="none" stroke="gray" d="M789,-762C789,-756 795,-750 801,-750"/>
<text text-anchor="middle" x="890" y="-810.1" font-family="Times Roman,serif" font-size="11.00" fill="gray">Command</text>
</g>
<g id="graph5" class="cluster"><title>cluster_Bazinga_ExposeRoutingBundle_Controller</title>
<polyline fill="none" stroke="gray" points="852,-668 928,-668 "/>
<path fill="none" stroke="gray" d="M928,-668C934,-668 940,-674 940,-680"/>
<polyline fill="none" stroke="gray" points="940,-680 940,-730 "/>
<path fill="none" stroke="gray" d="M940,-730C940,-736 934,-742 928,-742"/>
<polyline fill="none" stroke="gray" points="928,-742 852,-742 "/>
<path fill="none" stroke="gray" d="M852,-742C846,-742 840,-736 840,-730"/>
<polyline fill="none" stroke="gray" points="840,-730 840,-680 "/>
<path fill="none" stroke="gray" d="M840,-680C840,-674 846,-668 852,-668"/>
<text text-anchor="middle" x="890" y="-728.1" font-family="Times Roman,serif" font-size="11.00" fill="gray">Controller</text>
</g>
<g id="graph6" class="cluster"><title>cluster_Bazinga_ExposeRoutingBundle_DependencyInjection</title>
<polyline fill="none" stroke="gray" points="788,-450 992,-450 "/>
<path fill="none" stroke="gray" d="M992,-450C998,-450 1004,-456 1004,-462"/>
<polyline fill="none" stroke="gray" points="1004,-462 1004,-566 "/>
<path fill="none" stroke="gray" d="M1004,-566C1004,-572 998,-578 992,-578"/>
<polyline fill="none" stroke="gray" points="992,-578 788,-578 "/>
<path fill="none" stroke="gray" d="M788,-578C782,-578 776,-572 776,-566"/>
<polyline fill="none" stroke="gray" points="776,-566 776,-462 "/>
<path fill="none" stroke="gray" d="M776,-462C776,-456 782,-450 788,-450"/>
<text text-anchor="middle" x="890" y="-564.1" font-family="Times Roman,serif" font-size="11.00" fill="gray">DependencyInjection</text>
</g>
<g id="graph7" class="cluster"><title>cluster_Bazinga_ExposeRoutingBundle_Service</title>
<polyline fill="none" stroke="gray" points="247,-586 969,-586 "/>
<path fill="none" stroke="gray" d="M969,-586C975,-586 981,-592 981,-598"/>
<polyline fill="none" stroke="gray" points="981,-598 981,-648 "/>
<path fill="none" stroke="gray" d="M981,-648C981,-654 975,-660 969,-660"/>
<polyline fill="none" stroke="gray" points="969,-660 247,-660 "/>
<path fill="none" stroke="gray" d="M247,-660C241,-660 235,-654 235,-648"/>
<polyline fill="none" stroke="gray" points="235,-648 235,-598 "/>
<path fill="none" stroke="gray" d="M235,-598C235,-592 241,-586 247,-586"/>
<text text-anchor="middle" x="608" y="-646.1" font-family="Times Roman,serif" font-size="11.00" fill="gray">Service</text>
</g>
<g id="graph8" class="cluster"><title>cluster_Bazinga_ExposeRoutingBundle_Tests</title>
<polyline fill="none" stroke="gray" points="790,-276 990,-276 "/>
<path fill="none" stroke="gray" d="M990,-276C996,-276 1002,-282 1002,-288"/>
<polyline fill="none" stroke="gray" points="1002,-288 1002,-430 "/>
<path fill="none" stroke="gray" d="M1002,-430C1002,-436 996,-442 990,-442"/>
<polyline fill="none" stroke="gray" points="990,-442 790,-442 "/>
<path fill="none" stroke="gray" d="M790,-442C784,-442 778,-436 778,-430"/>
<polyline fill="none" stroke="gray" points="778,-430 778,-288 "/>
<path fill="none" stroke="gray" d="M778,-288C778,-282 784,-276 790,-276"/>
<text text-anchor="middle" x="890" y="-428.1" font-family="Times Roman,serif" font-size="11.00" fill="gray">Tests</text>
</g>
<g id="graph9" class="cluster"><title>cluster_Bazinga_ExposeRoutingBundle_Tests_Controller</title>
<polyline fill="none" stroke="gray" points="798,-284 982,-284 "/>
<path fill="none" stroke="gray" d="M982,-284C988,-284 994,-290 994,-296"/>
<polyline fill="none" stroke="gray" points="994,-296 994,-400 "/>
<path fill="none" stroke="gray" d="M994,-400C994,-406 988,-412 982,-412"/>
<polyline fill="none" stroke="gray" points="982,-412 798,-412 "/>
<path fill="none" stroke="gray" d="M798,-412C792,-412 786,-406 786,-400"/>
<polyline fill="none" stroke="gray" points="786,-400 786,-296 "/>
<path fill="none" stroke="gray" d="M786,-296C786,-290 792,-284 798,-284"/>
<text text-anchor="middle" x="890" y="-398.1" font-family="Times Roman,serif" font-size="11.00" fill="gray">Controller</text>
</g>
<!-- _Bazinga_ExposeRoutingBundle_Command_RouterDebugExposedCommand -->
<g id="node4" class="node"><title>_Bazinga_ExposeRoutingBundle_Command_RouterDebugExposedCommand</title>
<a xlink:href="_Command_RouterDebugExposedCommand.html" xlink:title="RouterDebugExposedCommand" target="_parent">
<polygon fill="none" stroke="black" points="982,-794 798,-794 798,-758 982,-758 982,-794"/>
<text text-anchor="middle" x="890" y="-773.1" font-family="Courier New" font-size="11.00">RouterDebugExposedCommand</text>
</a>
</g>
<!-- _Symfony_Bundle_FrameworkBundle_Command_RouterDebugCommand -->
<g id="node24" class="node"><title>_Symfony_Bundle_FrameworkBundle_Command_RouterDebugCommand</title>
<ellipse fill="none" stroke="black" cx="356" cy="-234" rx="355.174" ry="18.3848"/>
<text text-anchor="middle" x="356" y="-230.4" font-family="Times Roman,serif" font-size="14.00" fill="gray">\Symfony\Bundle\FrameworkBundle\Command\RouterDebugCommand</text>
</g>
<!-- _Bazinga_ExposeRoutingBundle_Command_RouterDebugExposedCommand&#45;&gt;_Symfony_Bundle_FrameworkBundle_Command_RouterDebugCommand -->
<g id="edge16" class="edge"><title>_Bazinga_ExposeRoutingBundle_Command_RouterDebugExposedCommand-&gt;_Symfony_Bundle_FrameworkBundle_Command_RouterDebugCommand</title>
<path fill="none" stroke="black" d="M797.37,-760.012C789.62,-756.259 782.34,-751.651 776,-746 717.593,-693.938 755.167,-647.257 712,-582 618.028,-439.94 457.769,-310.371 388.968,-258.248"/>
<polygon fill="none" stroke="black" points="390.749,-255.207 380.655,-251.99 386.539,-260.8 390.749,-255.207"/>
</g>
<!-- _Bazinga_ExposeRoutingBundle_Controller_Controller -->
<g id="node6" class="node"><title>_Bazinga_ExposeRoutingBundle_Controller_Controller</title>
<a xlink:href="_Controller_Controller.html" xlink:title="Controller" target="_parent">
<polygon fill="none" stroke="black" points="932,-712 848,-712 848,-676 932,-676 932,-712"/>
<text text-anchor="middle" x="890" y="-691.1" font-family="Courier New" font-size="11.00">Controller</text>
</a>
</g>
<!-- _Bazinga_ExposeRoutingBundle_DependencyInjection_Configuration -->
<g id="node8" class="node"><title>_Bazinga_ExposeRoutingBundle_DependencyInjection_Configuration</title>
<a xlink:href="_DependencyInjection_Configuration.html" xlink:title="Configuration" target="_parent">
<polygon fill="none" stroke="black" points="942,-548 838,-548 838,-512 942,-512 942,-548"/>
<text text-anchor="middle" x="890" y="-527.1" font-family="Courier New" font-size="11.00">Configuration</text>
</a>
</g>
<!-- _Symfony_Component_Config_Definition_ConfigurationInterface -->
<g id="node32" class="node"><title>_Symfony_Component_Config_Definition_ConfigurationInterface</title>
<ellipse fill="none" stroke="black" cx="356" cy="-180" rx="314.162" ry="18.3848"/>
<text text-anchor="middle" x="356" y="-176.4" font-family="Times Roman,serif" font-size="14.00" fill="gray">\Symfony\Component\Config\Definition\ConfigurationInterface</text>
</g>
<!-- _Bazinga_ExposeRoutingBundle_DependencyInjection_Configuration&#45;&gt;_Symfony_Component_Config_Definition_ConfigurationInterface -->
<g id="edge24" class="edge"><title>_Bazinga_ExposeRoutingBundle_DependencyInjection_Configuration-&gt;_Symfony_Component_Config_Definition_ConfigurationInterface</title>
<path fill="none" stroke="black" stroke-dasharray="1,5" d="M837.798,-529.46C815.976,-526.53 792.02,-519.338 776,-503 681.765,-406.898 813.475,-295.424 712,-207 702.412,-198.645 686.751,-192.275 667.21,-187.468"/>
<polygon fill="none" stroke="black" points="667.84,-184.022 657.314,-185.232 666.297,-190.85 667.84,-184.022"/>
</g>
<!-- _Bazinga_ExposeRoutingBundle_DependencyInjection_BazingaExposeRoutingExtension -->
<g id="node9" class="node"><title>_Bazinga_ExposeRoutingBundle_DependencyInjection_BazingaExposeRoutingExtension</title>
<a xlink:href="_DependencyInjection_BazingaExposeRoutingExtension.html" xlink:title="BazingaExposeRoutingExtension" target="_parent">
<polygon fill="none" stroke="black" points="996,-494 784,-494 784,-458 996,-458 996,-494"/>
<text text-anchor="middle" x="890" y="-473.1" font-family="Courier New" font-size="11.00">BazingaExposeRoutingExtension</text>
</a>
</g>
<!-- _Symfony_Component_HttpKernel_DependencyInjection_Extension -->
<g id="node26" class="node"><title>_Symfony_Component_HttpKernel_DependencyInjection_Extension</title>
<ellipse fill="none" stroke="black" cx="356" cy="-126" rx="329.012" ry="18.3848"/>
<text text-anchor="middle" x="356" y="-122.4" font-family="Times Roman,serif" font-size="14.00" fill="gray">\Symfony\Component\HttpKernel\DependencyInjection\Extension</text>
</g>
<!-- _Bazinga_ExposeRoutingBundle_DependencyInjection_BazingaExposeRoutingExtension&#45;&gt;_Symfony_Component_HttpKernel_DependencyInjection_Extension -->
<g id="edge18" class="edge"><title>_Bazinga_ExposeRoutingBundle_DependencyInjection_BazingaExposeRoutingExtension-&gt;_Symfony_Component_HttpKernel_DependencyInjection_Extension</title>
<path fill="none" stroke="black" d="M834.353,-457.991C813.259,-448.573 790.789,-434.957 776,-416 702.003,-321.15 803.708,-230.857 712,-153 637.686,-89.91 520.318,-94.1481 440.845,-106.8"/>
<polygon fill="none" stroke="black" points="440.15,-103.368 430.862,-108.465 441.301,-110.272 440.15,-103.368"/>
</g>
<!-- _Bazinga_ExposeRoutingBundle_Service_ExposedRoutesExtractor -->
<g id="node11" class="node"><title>_Bazinga_ExposeRoutingBundle_Service_ExposedRoutesExtractor</title>
<a xlink:href="_Service_ExposedRoutesExtractor.html" xlink:title="ExposedRoutesExtractor" target="_parent">
<polygon fill="none" stroke="black" points="972,-630 808,-630 808,-594 972,-594 972,-630"/>
<text text-anchor="middle" x="890" y="-609.1" font-family="Courier New" font-size="11.00">ExposedRoutesExtractor</text>
</a>
</g>
<!-- _Bazinga_ExposeRoutingBundle_Service_ExposedRoutesExtractorInterface -->
<g id="node12" class="node"><title>_Bazinga_ExposeRoutingBundle_Service_ExposedRoutesExtractorInterface</title>
<a xlink:href="_Service_ExposedRoutesExtractorInterface.html" xlink:title="ExposedRoutesExtractorInterface" target="_parent">
<polygon fill="none" stroke="black" points="469,-630 243,-630 243,-594 469,-594 469,-630"/>
<text text-anchor="middle" x="356" y="-609.1" font-family="Courier New" font-size="11.00">ExposedRoutesExtractorInterface</text>
</a>
</g>
<!-- _Bazinga_ExposeRoutingBundle_Service_ExposedRoutesExtractor&#45;&gt;_Bazinga_ExposeRoutingBundle_Service_ExposedRoutesExtractorInterface -->
<g id="edge26" class="edge"><title>_Bazinga_ExposeRoutingBundle_Service_ExposedRoutesExtractor-&gt;_Bazinga_ExposeRoutingBundle_Service_ExposedRoutesExtractorInterface</title>
<path fill="none" stroke="black" stroke-dasharray="1,5" d="M807.441,-612C719.841,-612 580.443,-612 479.71,-612"/>
<polygon fill="none" stroke="black" points="479.472,-608.5 469.472,-612 479.472,-615.5 479.472,-608.5"/>
</g>
<!-- _Bazinga_ExposeRoutingBundle_Tests_Controller_ExposedRoutesExtractorTest -->
<g id="node15" class="node"><title>_Bazinga_ExposeRoutingBundle_Tests_Controller_ExposedRoutesExtractorTest</title>
<a xlink:href="_Tests_Service_ExposedRoutesExtractorTest.html" xlink:title="ExposedRoutesExtractorTest" target="_parent">
<polygon fill="none" stroke="black" points="986,-382 794,-382 794,-346 986,-346 986,-382"/>
<text text-anchor="middle" x="890" y="-361.1" font-family="Courier New" font-size="11.00">ExposedRoutesExtractorTest</text>
</a>
</g>
<!-- _PHPUnit_Framework_TestCase -->
<g id="node28" class="node"><title>_PHPUnit_Framework_TestCase</title>
<ellipse fill="none" stroke="black" cx="356" cy="-72" rx="164.756" ry="18.3848"/>
<text text-anchor="middle" x="356" y="-68.4" font-family="Times Roman,serif" font-size="14.00" fill="gray">\PHPUnit_Framework_TestCase</text>
</g>
<!-- _Bazinga_ExposeRoutingBundle_Tests_Controller_ExposedRoutesExtractorTest&#45;&gt;_PHPUnit_Framework_TestCase -->
<g id="edge20" class="edge"><title>_Bazinga_ExposeRoutingBundle_Tests_Controller_ExposedRoutesExtractorTest-&gt;_PHPUnit_Framework_TestCase</title>
<path fill="none" stroke="black" d="M793.772,-349.749C787.286,-346.298 781.255,-342.099 776,-337 697.388,-260.723 796.346,-168.884 712,-99 635.447,-35.5732 515.077,-41.0249 435.845,-53.944"/>
<polygon fill="none" stroke="black" points="435.18,-50.5067 425.911,-55.6379 436.357,-57.4071 435.18,-50.5067"/>
</g>
<!-- _Bazinga_ExposeRoutingBundle_Tests_Controller_ControllerTest -->
<g id="node16" class="node"><title>_Bazinga_ExposeRoutingBundle_Tests_Controller_ControllerTest</title>
<a xlink:href="_Tests_Controller_ControllerTest.html" xlink:title="ControllerTest" target="_parent">
<polygon fill="none" stroke="black" points="945,-328 835,-328 835,-292 945,-292 945,-328"/>
<text text-anchor="middle" x="890" y="-307.1" font-family="Courier New" font-size="11.00">ControllerTest</text>
</a>
</g>
<!-- _Symfony_Bundle_FrameworkBundle_Test_WebTestCase -->
<g id="node30" class="node"><title>_Symfony_Bundle_FrameworkBundle_Test_WebTestCase</title>
<ellipse fill="none" stroke="black" cx="356" cy="-18" rx="277.186" ry="18.3848"/>
<text text-anchor="middle" x="356" y="-14.4" font-family="Times Roman,serif" font-size="14.00" fill="gray">\Symfony\Bundle\FrameworkBundle\Test\WebTestCase</text>
</g>
<!-- _Bazinga_ExposeRoutingBundle_Tests_Controller_ControllerTest&#45;&gt;_Symfony_Bundle_FrameworkBundle_Test_WebTestCase -->
<g id="edge22" class="edge"><title>_Bazinga_ExposeRoutingBundle_Tests_Controller_ControllerTest-&gt;_Symfony_Bundle_FrameworkBundle_Test_WebTestCase</title>
<path fill="none" stroke="black" d="M884.079,-291.665C866.861,-241.702 811.608,-103.029 712,-45 645.001,-5.9681 558.472,1.36429 487.499,-1.34256"/>
<polygon fill="none" stroke="black" points="486.976,2.1374 477.145,-1.8122 487.293,-4.85541 486.976,2.1374"/>
</g>
</g>
<script xlink:href="js/SVGPan.js"/></svg>
