<?xml version="1.0" encoding="UTF-8" standalone="no"?>
<!DOCTYPE svg PUBLIC "-//W3C//DTD SVG 1.1//EN" "http://www.w3.org/Graphics/SVG/1.1/DTD/svg11.dtd">
<!-- Generated by graphviz version 2.26.3 (20100126.1600)
 -->
<!-- Title: Classes Pages: 1 -->
<svg xmlns="http://www.w3.org/2000/svg" xmlns:xlink="http://www.w3.org/1999/xlink" width="698pt" height="629pt">
<g id="viewport" class="graph" transform="scale(1 1) rotate(0) translate(4 625)">
<title>Classes</title>
<polygon fill="white" stroke="white" points="-4,5 -4,-625 695,-625 695,5 -4,5"/>
<!-- 09a15e9660c1ebc6f429d818825ce0c6 -->
<g id="node1" class="node"><title>09a15e9660c1ebc6f429d818825ce0c6</title>
<polygon fill="white" stroke="black" points="63,-413.455 1,-413.455 1,-377.455 63,-377.455 63,-413.455"/>
<text text-anchor="middle" x="32" y="-390.355" font-family="Times,serif" font-size="14.00" fill="gray">stdClass</text>
</g>
<!-- 90156b3a685729ec1d3933b931e122e0 -->
<g id="node2" class="node"><title>90156b3a685729ec1d3933b931e122e0</title>
<a xlink:href="_Controller_Controller.html" xlink:title="Controller" target="_top">
<polygon fill="white" stroke="black" points="225,-582.455 149,-582.455 149,-546.455 225,-546.455 225,-582.455"/>
<text text-anchor="middle" x="187" y="-559.355" font-family="Times,serif" font-size="14.00">Controller</text>
</a>
</g>
<!-- 90156b3a685729ec1d3933b931e122e0&#45;&gt;09a15e9660c1ebc6f429d818825ce0c6 -->
<g id="edge2" class="edge"><title>90156b3a685729ec1d3933b931e122e0-&gt;09a15e9660c1ebc6f429d818825ce0c6</title>
<path fill="none" stroke="black" d="M181.953,-546.361C169.252,-502.745 134.579,-395.389 101,-395.455"/>
</g>
<!-- d4b2f73185b16d193f3068062317d3d7 -->
<g id="node3" class="node"><title>d4b2f73185b16d193f3068062317d3d7</title>
<a xlink:href="_DependencyInjection_Configuration.html" xlink:title="Configuration" target="_top">
<polygon fill="white" stroke="black" points="236,-413.455 138,-413.455 138,-377.455 236,-377.455 236,-413.455"/>
<text text-anchor="middle" x="187" y="-390.355" font-family="Times,serif" font-size="14.00">Configuration</text>
</a>
</g>
<!-- d4b2f73185b16d193f3068062317d3d7&#45;&gt;09a15e9660c1ebc6f429d818825ce0c6 -->
<g id="edge4" class="edge"><title>d4b2f73185b16d193f3068062317d3d7-&gt;09a15e9660c1ebc6f429d818825ce0c6</title>
<path fill="none" stroke="black" d="M137.883,-395.422C125.822,-395.423 112.944,-395.431 101,-395.455"/>
</g>
<!-- d1457b72c3fb323a2671125aef3eab5d -->
<g id="node4" class="node"><title>d1457b72c3fb323a2671125aef3eab5d</title>
<polygon fill="white" stroke="black" points="214,-243.455 160,-243.455 160,-207.455 214,-207.455 214,-243.455"/>
<text text-anchor="middle" x="187" y="-220.355" font-family="Times,serif" font-size="14.00" fill="gray">?</text>
</g>
<!-- d1457b72c3fb323a2671125aef3eab5d&#45;&gt;09a15e9660c1ebc6f429d818825ce0c6 -->
<g id="edge6" class="edge"><title>d1457b72c3fb323a2671125aef3eab5d-&gt;09a15e9660c1ebc6f429d818825ce0c6</title>
<path fill="none" stroke="black" d="M101,-395.455C92.2178,-395.472 82.8068,-395.479 73.8474,-395.481"/>
<polygon fill="none" stroke="black" points="73.6022,-391.981 63.6021,-395.48 73.602,-398.981 73.6022,-391.981"/>
<path fill="none" stroke="black" d="M181.972,-243.639C169.316,-287.476 134.737,-395.389 101,-395.455"/>
</g>
<!-- c51e8d861978160ba843a86172a0d968 -->
<g id="node5" class="node"><title>c51e8d861978160ba843a86172a0d968</title>
<polygon fill="white" stroke="black" points="386,-413.455 328,-413.455 328,-377.455 386,-377.455 386,-413.455"/>
<text text-anchor="middle" x="357" y="-390.355" font-family="Times,serif" font-size="14.00" fill="gray">Bundle</text>
</g>
<!-- c51e8d861978160ba843a86172a0d968&#45;&gt;d1457b72c3fb323a2671125aef3eab5d -->
<g id="edge8" class="edge"><title>c51e8d861978160ba843a86172a0d968-&gt;d1457b72c3fb323a2671125aef3eab5d</title>
<path fill="none" stroke="black" d="M352.167,-377.27C339.982,-333.433 306.579,-225.521 273,-225.455"/>
</g>
<!-- d7251b9b5de794a34286059f5dc83420 -->
<g id="node6" class="node"><title>d7251b9b5de794a34286059f5dc83420</title>
<a xlink:href="_BazingaExposeRoutingBundle.html" xlink:title="BazingaExposeRoutingBundle" target="_top">
<polygon fill="white" stroke="black" points="681,-413.455 487,-413.455 487,-377.455 681,-377.455 681,-413.455"/>
<text text-anchor="middle" x="584" y="-390.355" font-family="Times,serif" font-size="14.00">BazingaExposeRoutingBundle</text>
</a>
</g>
<!-- d7251b9b5de794a34286059f5dc83420&#45;&gt;c51e8d861978160ba843a86172a0d968 -->
<g id="edge10" class="edge"><title>d7251b9b5de794a34286059f5dc83420-&gt;c51e8d861978160ba843a86172a0d968</title>
<path fill="none" stroke="black" d="M486.414,-395.455C454.871,-395.455 421.654,-395.455 396.772,-395.455"/>
<polygon fill="none" stroke="black" points="396.647,-391.955 386.647,-395.455 396.647,-398.955 396.647,-391.955"/>
</g>
<!-- ec08c9ae73d5fa79ec0ba8565c4b7c92 -->
<g id="node7" class="node"><title>ec08c9ae73d5fa79ec0ba8565c4b7c92</title>
<polygon fill="white" stroke="black" points="394,-243.455 320,-243.455 320,-207.455 394,-207.455 394,-243.455"/>
<text text-anchor="middle" x="357" y="-220.355" font-family="Times,serif" font-size="14.00" fill="gray">Extension</text>
</g>
<!-- ec08c9ae73d5fa79ec0ba8565c4b7c92&#45;&gt;d1457b72c3fb323a2671125aef3eab5d -->
<g id="edge12" class="edge"><title>ec08c9ae73d5fa79ec0ba8565c4b7c92-&gt;d1457b72c3fb323a2671125aef3eab5d</title>
<path fill="none" stroke="black" d="M319.784,-225.486C305.195,-225.49 288.312,-225.485 273,-225.455"/>
</g>
<!-- ac785481ab980632be66969c3f700799 -->
<g id="node8" class="node"><title>ac785481ab980632be66969c3f700799</title>
<a xlink:href="_DependencyInjection_BazingaExposeRoutingExtension.html" xlink:title="BazingaExposeRoutingExtension" target="_top">
<polygon fill="white" stroke="black" points="689,-243.455 479,-243.455 479,-207.455 689,-207.455 689,-243.455"/>
<text text-anchor="middle" x="584" y="-220.355" font-family="Times,serif" font-size="14.00">BazingaExposeRoutingExtension</text>
</a>
</g>
<!-- ac785481ab980632be66969c3f700799&#45;&gt;ec08c9ae73d5fa79ec0ba8565c4b7c92 -->
<g id="edge14" class="edge"><title>ac785481ab980632be66969c3f700799-&gt;ec08c9ae73d5fa79ec0ba8565c4b7c92</title>
<path fill="none" stroke="black" d="M478.475,-225.455C452.505,-225.455 425.977,-225.455 404.363,-225.455"/>
<polygon fill="none" stroke="black" points="404.171,-221.955 394.171,-225.455 404.171,-228.955 404.171,-221.955"/>
</g>
<!-- dd3e7dfe43ebcdf692817c8fa002338b -->
<g id="node9" class="node"><title>dd3e7dfe43ebcdf692817c8fa002338b</title>
<polygon fill="white" stroke="black" points="404,-74.4545 310,-74.4545 310,-38.4545 404,-38.4545 404,-74.4545"/>
<text text-anchor="middle" x="357" y="-51.3545" font-family="Times,serif" font-size="14.00" fill="gray">WebTestCase</text>
</g>
<!-- dd3e7dfe43ebcdf692817c8fa002338b&#45;&gt;d1457b72c3fb323a2671125aef3eab5d -->
<g id="edge16" class="edge"><title>dd3e7dfe43ebcdf692817c8fa002338b-&gt;d1457b72c3fb323a2671125aef3eab5d</title>
<path fill="none" stroke="black" d="M352.147,-74.5487C339.918,-118.165 306.42,-225.521 273,-225.455"/>
<path fill="none" stroke="black" d="M273,-225.455C256.987,-225.423 239.297,-225.418 224.145,-225.422"/>
<polygon fill="none" stroke="black" points="224.112,-221.922 214.113,-225.427 224.115,-228.922 224.112,-221.922"/>
</g>
<!-- 4bd0d8ccdaac4e628b25e293388a918f -->
<g id="node10" class="node"><title>4bd0d8ccdaac4e628b25e293388a918f</title>
<a xlink:href="_Tests_Controller_ControllerTest.html" xlink:title="ControllerTest" target="_top">
<polygon fill="white" stroke="black" points="634,-74.4545 534,-74.4545 534,-38.4545 634,-38.4545 634,-74.4545"/>
<text text-anchor="middle" x="584" y="-51.3545" font-family="Times,serif" font-size="14.00">ControllerTest</text>
</a>
</g>
<!-- 4bd0d8ccdaac4e628b25e293388a918f&#45;&gt;dd3e7dfe43ebcdf692817c8fa002338b -->
<g id="edge18" class="edge"><title>4bd0d8ccdaac4e628b25e293388a918f-&gt;dd3e7dfe43ebcdf692817c8fa002338b</title>
<path fill="none" stroke="black" d="M533.903,-56.4545C498.577,-56.4545 451.186,-56.4545 414.346,-56.4545"/>
<polygon fill="none" stroke="black" points="414.254,-52.9546 404.254,-56.4545 414.254,-59.9546 414.254,-52.9546"/>
</g>
</g>
<script xlink:href="js/SVGPan.js"/></svg>
